<svg xmlns="http://www.w3.org/2000/svg" viewBox="0 0 572.35 130.15"><defs><style>.cls-1{isolation:isolate;}.cls-2,.cls-3{fill:#093;}.cls-3{mix-blend-mode:multiply;opacity:0.2;}.cls-4{fill:none;}</style></defs><g class="cls-1"><g id="Destinos-2" data-name="Destinos"><path class="cls-2" d="M572.37,130.2H0V23.46A23.47,23.47,0,0,1,23.4,0H549a23.38,23.38,0,0,1,23.38,23.38Z"/><path class="cls-3" d="M569.45,11.75c-9.31,7.24-23.18,15.31-39.8,14.65a47.68,47.68,0,0,1-19.91-5.09C481.15,7.8,445.07,11.2,412.06,23.46s-35.58,22.72-85.3-2.15S215.63,17.07,186.52,32.39s-46,16.85-106.66-11.27C47.72,6.23,19.59,16.64,0,29.72c.08,8.57,0,16.86,0,25.33,59-30.21,85.64,0,85.64,0C120.2,75.61,163.91,75.91,200,59.17c11.86-5.5,23.3-12.06,35.79-16.13,23.51-7.65,49.36-5.83,73,1.45,26.49,8.17,53.14,23.2,80.19,17.13,13-2.92,24.41-10.5,36.79-15.45A95.72,95.72,0,0,1,495,45.76c12.65,4.89,25.75,13.2,39.87,11.31,13.07-1.74,25.27-4.56,37.47-9.64l0-25.63c.12-1.69-.36-4.14-1.71-7.62A8.35,8.35,0,0,0,569.45,11.75Z"/><path class="cls-4" d="M23.21,0H549a23.38,23.38,0,0,1,23.38,23.38V130.15a0,0,0,0,1,0,0H-.17a0,0,0,0,1,0,0V23.38A23.38,23.38,0,0,1,23.21,0Z"/><path class="cls-3" d="M572.37,97.61c0-12.85.19-25.7,0-38.55A54.08,54.08,0,0,1,528.14,76c-12.58-1.22-24.25-6.88-36.49-10-28-7.24-58-1-84.76,10-11.16,4.6-22.37,10.14-34.44,10.49-18.24.53-34.39-10.7-51.29-17.59-39.74-16.21-85.74-8.26-124.89,9.34-14,6.27-27.8,13.84-43,15.2-31.45,2.82-58.88-21-89.85-27.22a84,84,0,0,0-53.9,7.48C7.07,74.87.26,77,.09,79.4-.1,82.19,0,88.54,0,91.39V104.7c19.76-9.91,43.46-16.94,65.31-10,10.73,3.41,20.12,10,30.19,15a115.05,115.05,0,0,0,85.62,6.58c20.6-6.6,39.09-19,60-24.52,24.88-6.57,51.54-2.88,75.89,5.47,22.87,7.84,46.22,19.92,69.93,15.14,13.44-2.72,25.17-10.62,37.88-15.76a96.86,96.86,0,0,1,69.41-1c12.7,4.75,25.82,12.72,39.86,11.72C547.07,106.49,560.38,102.57,572.37,97.61Z"/></g></g></svg>