<svg id="Neusa" xmlns="http://www.w3.org/2000/svg" xmlns:xlink="http://www.w3.org/1999/xlink" viewBox="0 0 133.73 29.76"><defs><style>.cls-1{fill:none;}.cls-2{clip-path:url(#clip-path);}.cls-3{fill:url(#Degradado_sin_nombre_89);}.cls-4{fill:url(#Degradado_sin_nombre_89-2);}</style><clipPath id="clip-path"><path class="cls-1" d="M133.73,6.25v-2A4.23,4.23,0,0,0,129.5,0H4.23A4.23,4.23,0,0,0,0,4.23V25.54a4.22,4.22,0,0,0,4.23,4.22H129.5a4.23,4.23,0,0,0,4.23-4.22V6.25"/></clipPath><linearGradient id="Degradado_sin_nombre_89" x1="66.86" y1="29.76" x2="66.86" y2="3.01" gradientUnits="userSpaceOnUse"><stop offset="0" stop-color="#51924e"/><stop offset="1" stop-color="#9cc24c"/></linearGradient><linearGradient id="Degradado_sin_nombre_89-2" x1="66.86" y1="19.58" x2="66.86" y2="0" xlink:href="#Degradado_sin_nombre_89"/></defs><g class="cls-2"><path class="cls-3" d="M0,29.76H133.73V6.24C123.24,6.14,115.62,13,115.62,13c-14.16,14.74-26.76,0-26.76,0C65.32-9.52,49.43,13,49.43,13c-11.82,13.64-21.27,0-21.27,0C17.1-.18,7.31,2.18,0,8.5Z"/><path class="cls-4" d="M133.73,6.24C123.24,6.14,115.62,13,115.62,13c-14.16,14.74-26.76,0-26.76,0C65.32-9.52,49.43,13,49.43,13c-11.82,13.64-21.27,0-21.27,0C17.1-.18,7.31,2.18,0,8.5l0-.19L0,0H133.73Z"/></g></svg>