<svg xmlns="http://www.w3.org/2000/svg" viewBox="0 0 40.79 30.88"><defs><style>.cls-1{fill:#fff;}.cls-2{fill:#992c1c;}.cls-3{fill:#be422c;}.cls-4{fill:#057284;}.cls-5{fill:#9cbe4e;}.cls-6{fill:#045861;}</style></defs><g id="Capa_2" data-name="Capa 2"><g id="Capa_2-2" data-name="Capa 2"><path class="cls-1" d="M24.9,16.9a1.35,1.35,0,0,1-1-.42,1.33,1.33,0,0,1-.24-1.4l.42-1a1.32,1.32,0,0,1,.89-.77l11.67-2.92a1.32,1.32,0,0,1,.72,2.53L25.3,16.84A1.39,1.39,0,0,1,24.9,16.9Z"/><path class="cls-1" d="M24.84,16.48a1.31,1.31,0,0,1-.82-.3,1.29,1.29,0,0,1-.49-1.11l.07-.91a1.32,1.32,0,0,1,1-1.19L39.19,9.68a1.31,1.31,0,0,1,1.56,1,1.32,1.32,0,0,1-.91,1.59l-14.63,4.2A1.19,1.19,0,0,1,24.84,16.48Z"/><path class="cls-1" d="M12.33,30.88a22.68,22.68,0,0,1-4.6-.46,1.32,1.32,0,0,1-1-1.09A1.31,1.31,0,0,1,7.36,28s3.34-2,6.81-8.68c5.18-10,18-7.83,18.17-7.81a1.32,1.32,0,0,1,1.08,1.23,1.33,1.33,0,0,1-1,1.33c-.2.06-4.47,1.41-6.43,8.32C24.12,29.08,17.64,30.88,12.33,30.88ZM11.15,28.2h.16l0,0,0-.09ZM23.44,16.75a9.53,9.53,0,0,0-5.25,4.64,40,40,0,0,1-2.83,4.7,9.63,9.63,0,0,0,3.83-1.41,6,6,0,0,0,2.49-3.54A21.52,21.52,0,0,1,23.44,16.75Zm-3.52,9h0Zm7.63-11.83s0,.05,0,.08a1,1,0,0,1,.07.15l.27-.25Z"/><path class="cls-1" d="M12.49,29a1.31,1.31,0,0,1-1-2.18,33.33,33.33,0,0,0,4.36-6.59c1.88-3.64,5.13-5.9,9.64-6.71h0l.75-.12a1.31,1.31,0,0,1,1.18,2.15,16.91,16.91,0,0,0-3.24,6.36,8.58,8.58,0,0,1-3.54,5,12.62,12.62,0,0,1-5.33,1.89,19.88,19.88,0,0,1-2.84.2Zm3-3.11-.17.25.31-.05L15.62,26ZM23,16.93l.08.07a1.22,1.22,0,0,1,.15.17c.07-.15.15-.29.22-.42Z"/><path class="cls-1" d="M18.42,16.05a1.24,1.24,0,0,1-.56-.13,1.31,1.31,0,0,1-.69-1.59C17.92,12,16.16,9.87,12,8a1.32,1.32,0,0,1-.72-1.58A34.25,34.25,0,0,1,13.61.69,1.29,1.29,0,0,1,14.67,0a1.31,1.31,0,0,1,1.15.53c.72,1,7,9.76,3.71,14.91A1.32,1.32,0,0,1,18.42,16.05ZM14.1,6.1a16.33,16.33,0,0,1,2.83,1.79,27.57,27.57,0,0,0-2-3.92C14.67,4.59,14.38,5.31,14.1,6.1Z"/><path class="cls-1" d="M15.75,18l-.21,0-.11,0a1.34,1.34,0,0,1-1.07-1.36,1.28,1.28,0,0,1,1.16-1.24l.17,0a1.31,1.31,0,0,1,1.46,1,1.3,1.3,0,0,1-.81,1.55l-.15.06A1.32,1.32,0,0,1,15.75,18Z"/><path class="cls-1" d="M14.35,18.51a5.32,5.32,0,0,1-2.1-.43C7.26,16,5.06,6.76,4.83,5.71A1.29,1.29,0,0,1,5.18,4.5a1.33,1.33,0,0,1,1.21-.36c1,.23,9.93,2.32,12.17,7.28A6,6,0,0,1,18.15,17a1.18,1.18,0,0,1-.46.48A6.29,6.29,0,0,1,14.35,18.51ZM17,16.37ZM8,7.3c1,3,2.8,7.32,5.28,8.37A3.06,3.06,0,0,0,16,15.42a3.29,3.29,0,0,0,.14-2.92C15.05,10,10.91,8.23,8,7.3Z"/><path class="cls-1" d="M12.21,21.26c-5,0-11-4.76-11.73-5.36a1.32,1.32,0,0,1,.26-2.2,32.74,32.74,0,0,1,6.7-2.25,1.31,1.31,0,0,1,1.44.71c1.27,2.62,2.69,4.21,4.09,4.62a3.27,3.27,0,0,0,2.72-.53,1.31,1.31,0,0,1,1.87,1.69,5.59,5.59,0,0,1-3.88,3.17A7.19,7.19,0,0,1,12.21,21.26ZM4,15.2a22.53,22.53,0,0,0,6.42,3.18A12,12,0,0,1,7,14.24,30.74,30.74,0,0,0,4,15.2Z"/><polygon class="cls-2" points="24.9 15.59 36.99 11.67 25.32 14.59 24.9 15.59"/><polygon class="cls-3" points="24.91 14.25 39.48 10.96 24.84 15.16 24.91 14.25"/><path class="cls-4" d="M32.11,12.79s-12-2.16-16.77,7.12C11.59,27.15,8,29.13,8,29.13S21.91,32.07,24.77,22C27,14.2,32.11,12.79,32.11,12.79Zm-12.19,13a11.36,11.36,0,0,1-4.78,1.69,20.7,20.7,0,0,1-2.65.18A34.27,34.27,0,0,0,17,20.78c1.69-3.26,4.62-5.29,8.71-6l.71-.11a18.2,18.2,0,0,0-3.5,6.85A7.3,7.3,0,0,1,19.92,25.77Z"/><path class="cls-5" d="M25.73,14.76c-4.09.73-7,2.76-8.71,6a34.27,34.27,0,0,1-4.53,6.86,20.7,20.7,0,0,0,2.65-.18,11.36,11.36,0,0,0,4.78-1.69,7.3,7.3,0,0,0,3-4.27,18.2,18.2,0,0,1,3.5-6.85l-.71.11M21.12,21a5.51,5.51,0,0,1-2.26,3.22,7.9,7.9,0,0,1-2.19,1,40.66,40.66,0,0,0,2-3.54A8.69,8.69,0,0,1,22.19,18a22.57,22.57,0,0,0-1.07,3"/><path class="cls-6" d="M18.42,14.73c2.88-4.54-3.66-13.42-3.66-13.42a32.74,32.74,0,0,0-2.27,5.48C16,8.35,19.64,11,18.42,14.73Z"/><path class="cls-6" d="M15.65,16.7l.1,0,.13,0A.91.91,0,0,1,15.65,16.7Z"/><path class="cls-4" d="M6.11,5.42s3.48,15.5,10.9,11C21.23,8.75,6.11,5.42,6.11,5.42Z"/><path class="cls-6" d="M7.7,12.74a30.93,30.93,0,0,0-6.39,2.15S13,24.38,16.38,17.37C12.35,19.84,9.48,16.4,7.7,12.74Z"/></g></g></svg>