<svg xmlns="http://www.w3.org/2000/svg" viewBox="0 0 94.94 98.65"><defs><style>.cls-1{fill:#fff;}.cls-2{fill:#00698b;}.cls-3,.cls-6{fill:#4c9c9b;}.cls-4{fill:#b9ca4e;}.cls-5{fill:#75676b;}.cls-6{stroke:#4c9c9b;stroke-linecap:round;stroke-linejoin:round;stroke-width:0.79px;}</style></defs><title>footer Logo CAR</title><g id="Capa_2" data-name="Capa 2"><g id="Capa_1-2" data-name="Capa 1"><path class="cls-1" d="M27.46,98.65a13.15,13.15,0,0,1-5.06-1,12.85,12.85,0,0,1-6.94-6.76,12.59,12.59,0,0,1-1-5v-.1c0-.4,0-.81.06-1.25l.09-.92h-.92a1.45,1.45,0,0,1-.89-.3,1.5,1.5,0,0,1-.59-1.42c.13-.82.35-1.79.59-2.82.68-2.9,1.52-6.5.7-9.16C11.8,64.51,9.72,57.82,15.09,52.7a12.36,12.36,0,0,1,7-3.18l.09-1.62c-.42-.14-.84-.26-1.27-.39C9.38,44.19,2.33,35.06.48,21.1A64.42,64.42,0,0,1,1.15,1.18,1.49,1.49,0,0,1,2.4,0l.21,0A1.51,1.51,0,0,1,3.93.78c0,.09,5,8.65,21.66,17.83l1.29.7,0-1.46s0-.14,0-.14a4.44,4.44,0,0,1,8.77-.94l.06.27.21.19a36.73,36.73,0,0,1,10.8,15.91l.8,2.26.79-2.26a36.88,36.88,0,0,1,10.8-15.91l.21-.19.06-.27a4.44,4.44,0,0,1,8.78.95s0,.09,0,.13l0,1.46,1.28-.7C86,9.43,91,.86,91,.78A1.5,1.5,0,0,1,92.32,0h.22a1.52,1.52,0,0,1,1.25,1.16,65,65,0,0,1,.66,19.92c-1.84,14-8.9,23.09-20.4,26.41-.43.13-.86.25-1.28.39l.1,1.62a12.3,12.3,0,0,1,7,3.18c5.38,5.12,3.3,11.81,1.63,17.19-.83,2.66,0,6.26.69,9.16.24,1,.47,2,.59,2.82a1.48,1.48,0,0,1-.59,1.42,1.43,1.43,0,0,1-.89.3,1.57,1.57,0,0,1-.64-.14,1.53,1.53,0,0,1-.82-1,11.57,11.57,0,0,0-.5-1.51l-1.62.36v.16a3.59,3.59,0,0,1,0,.47A10,10,0,0,1,76.89,86a9.45,9.45,0,0,1-.61,1.13l-.38.58.51.48a9.65,9.65,0,0,1,3,6c0,.14,0,.28,0,.41a3.75,3.75,0,0,1-3.74,3.74A3.71,3.71,0,0,1,72,95v0a.28.28,0,0,1,0-.09,2.27,2.27,0,0,0-.2-.87,2.33,2.33,0,0,0-.55-.76,2.44,2.44,0,0,0-.83-.48,2.81,2.81,0,0,0-1-.18h-.58a4,4,0,0,1-1.59-.32,4.75,4.75,0,0,1-.59-.31l-1.29-.84v3.42A3.76,3.76,0,0,1,65,96a4,4,0,0,1-.83,1.21,3.78,3.78,0,0,1-1.24.84,3.91,3.91,0,0,1-1.51.3,3.68,3.68,0,0,1-1.51-.31,3.64,3.64,0,0,1-.81-.49l-.5-.38-.51.38a3.89,3.89,0,0,1-2.39.8A3.66,3.66,0,0,1,53,97.19a3.94,3.94,0,0,1-1.05-2.74v-6.9l-1.42,1.36a4.41,4.41,0,0,1-6.12,0L43,87.55v6.9a4,4,0,0,1-1,2.74,3.66,3.66,0,0,1-2.78,1.19,3.82,3.82,0,0,1-1.54-.31,4.06,4.06,0,0,1-1.22-.81,3.49,3.49,0,0,1-.49-.58L35.4,96l-.69.48a11,11,0,0,1-2.44,1.3A13.45,13.45,0,0,1,27.46,98.65Z"/><path class="cls-2" d="M49.24,65.64a10.17,10.17,0,0,0,2.69,4.77c6.12,5.11,11-2,20.54,1.61a14.3,14.3,0,0,1,5.07,3.42,15,15,0,0,1,3.73,6.66c-.44-3-2.49-8.58-1.23-12.65,1.76-5.66,3.34-11.31-1.23-15.66-3.93-3.75-7.53-1.85-12.5-5C52.08,55.37,49.26,65.56,49.24,65.64Z"/><path class="cls-3" d="M92.33,1.5s-5.22,9.56-24.4,19.57C43.36,33.9,49.24,65.65,49.24,65.65s3.68-13.6,24.4-19.58C100.27,38.39,92.33,1.5,92.33,1.5Zm-13,28.88a14.4,14.4,0,0,1-8.5,6,63,63,0,0,0-8,2.89A23.34,23.34,0,0,1,72.6,30q5-2.61,9.37-5.45A20.86,20.86,0,0,1,79.35,30.38Z"/><path class="cls-2" d="M28.63,48.79c-5,3.15-8.57,1.25-12.5,5-4.57,4.35-3,10-1.23,15.66,1.26,4.07-.79,9.65-1.23,12.65a15,15,0,0,1,3.73-6.66A14.3,14.3,0,0,1,22.47,72c9.59-3.6,14.43,3.5,20.54-1.61a10.17,10.17,0,0,0,2.69-4.77C45.68,65.56,42.86,55.37,28.63,48.79Z"/><path class="cls-4" d="M70.27,25.54c-8.64,4.51-14,12.31-15.87,23.18-.11.63-.21,1.26-.29,1.87a48.14,48.14,0,0,1,18.14-9.36,19.44,19.44,0,0,0,11.29-8A30.09,30.09,0,0,0,88,20.47a52.74,52.74,0,0,0,.45-7A91.82,91.82,0,0,1,70.27,25.54Zm9.08,4.84a14.4,14.4,0,0,1-8.5,6,63,63,0,0,0-8,2.89A23.34,23.34,0,0,1,72.6,30q5-2.61,9.37-5.45A20.86,20.86,0,0,1,79.35,30.38Z"/><circle class="cls-2" cx="47.44" cy="39.39" r="2.94"/><path class="cls-2" d="M46.11,36.37v0A35.77,35.77,0,0,0,34.2,17.78a.13.13,0,0,0,0-.06,2.94,2.94,0,1,0-2.94,2.94,2.85,2.85,0,0,0,1.13-.23A35.83,35.83,0,0,1,46.11,36.37Z"/><path class="cls-2" d="M63.67,14.78a2.94,2.94,0,0,0-2.94,2.94s0,0,0,.06A35.77,35.77,0,0,0,48.83,36.35v0A35.83,35.83,0,0,1,62.54,20.43a2.85,2.85,0,0,0,1.13.23,2.94,2.94,0,0,0,0-5.88Z"/><path class="cls-3" d="M27,21.07C7.83,11.06,2.61,1.5,2.61,1.5S-5.33,38.39,21.3,46.07c20.72,6,24.4,19.58,24.4,19.58S51.59,33.9,27,21.07ZM24.09,36.39a14.4,14.4,0,0,1-8.5-6A20.86,20.86,0,0,1,13,24.55q4.35,2.84,9.37,5.45a23.34,23.34,0,0,1,9.72,9.28A63,63,0,0,0,24.09,36.39Z"/><path class="cls-4" d="M40.55,48.72c-1.9-10.87-7.24-18.67-15.88-23.18A91.82,91.82,0,0,1,6.53,13.43a51.19,51.19,0,0,0,.46,7A30.09,30.09,0,0,0,11.4,33.18a19.48,19.48,0,0,0,11.29,8,48.14,48.14,0,0,1,18.14,9.36C40.75,50,40.66,49.35,40.55,48.72ZM24.09,36.39a14.4,14.4,0,0,1-8.5-6A20.86,20.86,0,0,1,13,24.55q4.35,2.84,9.37,5.45a23.34,23.34,0,0,1,9.72,9.28A63,63,0,0,0,24.09,36.39Z"/><circle class="cls-3" cx="47.43" cy="85.71" r="2.94"/><path class="cls-5" d="M20.81,85.72l0,0,0,0a6.12,6.12,0,0,0,.47,2.38,6.69,6.69,0,0,0,1.3,2.08,6.58,6.58,0,0,0,2,1.49,5.72,5.72,0,0,0,2.48.58A7,7,0,0,0,29.37,92a6,6,0,0,0,2.2-1.24c.24-.19.5-.38.78-.56a2.69,2.69,0,0,1,.89-.38,2.12,2.12,0,0,1,1,0,2.61,2.61,0,0,1,1.11.62,2.13,2.13,0,0,1,.58.79,2.48,2.48,0,0,1,.18.93,2.69,2.69,0,0,1-.23,1,3.1,3.1,0,0,1-.65.92,9.43,9.43,0,0,1-3.49,2.29,12.07,12.07,0,0,1-4.28.77A11.59,11.59,0,0,1,23,96.28a11.77,11.77,0,0,1-3.66-2.39,11.17,11.17,0,0,1-2.47-3.59,10.85,10.85,0,0,1-.91-4.44v0l0,0,0,0a11,11,0,0,1,.91-4.48A11.54,11.54,0,0,1,23,75.21a11.25,11.25,0,0,1,4.49-.9,11.86,11.86,0,0,1,4.28.78,9.53,9.53,0,0,1,3.49,2.28,3.23,3.23,0,0,1,.65.92,2.74,2.74,0,0,1,.23,1,2.55,2.55,0,0,1-.18,1,2.22,2.22,0,0,1-.58.79,2.61,2.61,0,0,1-1.11.62,2.11,2.11,0,0,1-1,0,2.74,2.74,0,0,1-.89-.4c-.28-.18-.54-.37-.78-.56a6.36,6.36,0,0,0-2.2-1.22A7.92,7.92,0,0,0,27,79.14a6,6,0,0,0-2.45.61,6.76,6.76,0,0,0-2,1.48,7.09,7.09,0,0,0-1.31,2.09A6.19,6.19,0,0,0,20.81,85.72Z"/><path class="cls-5" d="M77.91,94.38h0a8.71,8.71,0,0,0-.27-1.44,8,8,0,0,0-4.1-5,7.22,7.22,0,0,0,2-2.62,8.34,8.34,0,0,0,.7-3.47,7.3,7.3,0,0,0-.67-3.13,8,8,0,0,0-1.8-2.49,8.22,8.22,0,0,0-2.63-1.66A8.37,8.37,0,0,0,68,74a9.36,9.36,0,0,0-3.61.68,8,8,0,0,0-2.81,1.88,8.42,8.42,0,0,0-1.82,2.87,9.94,9.94,0,0,0-.65,3.67V94.5a2.39,2.39,0,0,0,.18.92,2.76,2.76,0,0,0,.51.75,2.41,2.41,0,0,0,1.67.7,2.41,2.41,0,0,0,.93-.19,2.25,2.25,0,0,0,.77-.51,2.76,2.76,0,0,0,.51-.75,2.39,2.39,0,0,0,.18-.92V83a6,6,0,0,1,.38-2.12,4,4,0,0,1,.92-1.42,3.72,3.72,0,0,1,1.32-.79A4.79,4.79,0,0,1,68,78.47a4.09,4.09,0,0,1,1.54.28,3.91,3.91,0,0,1,1.24.76,3.59,3.59,0,0,1,.84,1.14,3.28,3.28,0,0,1,.3,1.39,5.2,5.2,0,0,1-.2,1.4,4.09,4.09,0,0,1-.58,1.25,3.26,3.26,0,0,1-.94.91,2.59,2.59,0,0,1-1.28.37h-.09a2.45,2.45,0,0,0-1,.19,2.83,2.83,0,0,0-.81.55,2.5,2.5,0,0,0-.54.81,2.55,2.55,0,0,0-.2,1,2.5,2.5,0,0,0,.2,1,2.57,2.57,0,0,0,.54.8,2.61,2.61,0,0,0,.81.54,2.45,2.45,0,0,0,1,.2h.58a4.31,4.31,0,0,1,1.52.27,4.12,4.12,0,0,1,1.3.76,3.76,3.76,0,0,1,.92,1.25,3.67,3.67,0,0,1,.34,1.43h0a2.25,2.25,0,0,0,4.49-.11A2.45,2.45,0,0,0,77.91,94.38Z"/><path class="cls-5" d="M53.41,84.65a5.5,5.5,0,0,0-.48-2.29,5.92,5.92,0,0,0-1.29-1.85,6.06,6.06,0,0,0-1.9-1.26,5.94,5.94,0,0,0-4.63,0,6,6,0,0,0-1.89,1.27,5.86,5.86,0,0,0-1.28,1.88,6.06,6.06,0,0,0-.49,2.29v9.76a2.48,2.48,0,0,1-.64,1.74,2.17,2.17,0,0,1-1.68.7,2.29,2.29,0,0,1-.94-.19,2.63,2.63,0,0,1-.78-.51,2.5,2.5,0,0,1-.53-.78,2.57,2.57,0,0,1-.19-1v-9.9s0-.07,0-.11a.43.43,0,0,0,0-.11,10.07,10.07,0,0,1,.94-4,10.76,10.76,0,0,1,5.68-5.48,10.58,10.58,0,0,1,4.09-.8,10.42,10.42,0,0,1,4.06.79A10.66,10.66,0,0,1,54.82,77a10.86,10.86,0,0,1,2.32,3.19,10.34,10.34,0,0,1,1,3.94,2.05,2.05,0,0,1,0,.31v10a2.28,2.28,0,0,1-.72,1.72,2.38,2.38,0,0,1-1.74.7,2.13,2.13,0,0,1-1.65-.7,2.42,2.42,0,0,1-.65-1.72Z"/><polygon class="cls-1" points="45.2 64.04 46.51 64.04 48.23 56.97 49.74 56.97 57.97 72.63 56.42 73.88 38.81 73.88 38.81 70.39 45.2 64.04"/><path class="cls-3" d="M63,55.65c5.25-2.23,10.45-1.8,11.63,1s-2.13,6.81-7.38,9.05-10.45,1.8-11.63-1S57.71,57.88,63,55.65Z"/><path class="cls-3" d="M39.36,64.7c-1.18,2.77-6.39,3.2-11.64,1s-8.55-6.29-7.37-9.05,6.38-3.2,11.63-1S40.53,61.94,39.36,64.7Z"/><ellipse class="cls-4" cx="65.08" cy="60.66" rx="5.16" ry="2.72" transform="translate(-18.55 30.31) rotate(-23.04)"/><ellipse class="cls-4" cx="29.85" cy="60.66" rx="2.72" ry="5.16" transform="translate(-37.65 64.39) rotate(-66.96)"/><path class="cls-1" d="M35.41,53.62l1.36-.15c.37,0,.69,0,.95,0a7.57,7.57,0,0,1,5.87,2.71A9.57,9.57,0,0,1,46,62.78a9.69,9.69,0,0,1-3.13,7.28,10.82,10.82,0,0,1-7.74,3,9.82,9.82,0,0,1-7.34-3,10.36,10.36,0,0,1-2.87-7.54,16.67,16.67,0,0,1,1.7-6.85,38.4,38.4,0,0,1,5.08-7.91,32.59,32.59,0,0,1,4-4.33,4.27,4.27,0,0,1,2.57-1.22,3.09,3.09,0,0,1,2.21.92,2.86,2.86,0,0,1,1,2.14q0,1.22-2.38,3.85A46.61,46.61,0,0,0,35.41,53.62Zm-3.73,9.24a4,4,0,0,0,1.11,2.86,3.46,3.46,0,0,0,2.64,1.18,3.52,3.52,0,0,0,2.66-1.18,4,4,0,0,0,1.11-2.86A4,4,0,0,0,38.09,60a3.54,3.54,0,0,0-2.66-1.17A3.49,3.49,0,0,0,32.79,60,4,4,0,0,0,31.68,62.86Z"/><path class="cls-1" d="M48.53,57.67q0-7.08,3.28-11.22a10.68,10.68,0,0,1,8.83-4.14,10.7,10.7,0,0,1,8.83,4.14q3.3,4.14,3.29,11.22T69.47,68.89A10.7,10.7,0,0,1,60.64,73a10.68,10.68,0,0,1-8.83-4.14Q48.54,64.75,48.53,57.67ZM60.68,48.4a4.29,4.29,0,0,0-3.84,2.46,13.67,13.67,0,0,0-1.41,6.77,13.76,13.76,0,0,0,1.41,6.81,4.22,4.22,0,0,0,7.67,0,13.89,13.89,0,0,0,1.39-6.81,13.79,13.79,0,0,0-1.4-6.77A4.27,4.27,0,0,0,60.68,48.4Z"/><path class="cls-6" d="M33.77,71H32.42l-.32.79-.06.09-.09,0-.1,0a.2.2,0,0,1-.11,0,.24.24,0,0,1-.14-.14.28.28,0,0,1,0-.2l1.24-2.87a.4.4,0,0,1,.1-.12.24.24,0,0,1,.15,0,.25.25,0,0,1,.14,0,.27.27,0,0,1,.09.12l1.24,2.87a.28.28,0,0,1,0,.2.28.28,0,0,1-.24.17l-.1,0-.08,0a.31.31,0,0,1-.07-.09Zm-1.13-.53h.91l-.46-1.08Z"/><path class="cls-6" d="M42.18,69.55v2.09a.25.25,0,0,1-.08.18.27.27,0,0,1-.38,0,.24.24,0,0,1-.07-.18V68.77a.25.25,0,0,1,.07-.19.26.26,0,0,1,.19-.07H42l.08,0,0,0,0,.07,1.58,2.2V68.76a.25.25,0,0,1,.07-.19A.28.28,0,0,1,44,68.5a.2.2,0,0,1,.11,0l.08,0a.26.26,0,0,1,0,.09.16.16,0,0,1,0,.1v2.88a.24.24,0,0,1,0,.16.3.3,0,0,1-.13.09H44a.23.23,0,0,1-.16-.06l0,0s0,0,0,0Zm0-1.69a.23.23,0,0,1,.07-.08.43.43,0,0,1,.12-.11,1,1,0,0,1,.17-.1.57.57,0,0,1,.42,0,.78.78,0,0,1,.18.11l.06,0,.06,0,.08,0h.07a.22.22,0,0,0,.13,0,.68.68,0,0,0,.12-.12v0l0,0a.22.22,0,0,1,.3,0,.22.22,0,0,1,.06.15.2.2,0,0,1-.06.15.36.36,0,0,1-.07.09l-.12.11a.91.91,0,0,1-.17.09.57.57,0,0,1-.42,0L43,68.08l0,0-.06,0-.07,0h-.07a.2.2,0,0,0-.13,0,.32.32,0,0,0-.12.11l0,0,0,0a.22.22,0,0,1-.3,0,.16.16,0,0,1,0-.07.11.11,0,0,1,0-.08.22.22,0,0,1,0-.08Z"/><path class="cls-6" d="M53.44,68.54a1.68,1.68,0,0,1,.41.17,1.54,1.54,0,0,1,.36.27,1.91,1.91,0,0,1,.27.35,2.09,2.09,0,0,1,.17.41,1.76,1.76,0,0,1,.06.46,1.72,1.72,0,0,1-.13.68,1.88,1.88,0,0,1-.38.54,1.62,1.62,0,0,1-.55.37,1.67,1.67,0,0,1-1.34,0,1.62,1.62,0,0,1-.55-.37,1.68,1.68,0,0,1-.37-.54,1.72,1.72,0,0,1-.13-.68,1.76,1.76,0,0,1,.06-.46,2.09,2.09,0,0,1,.17-.41,1.91,1.91,0,0,1,.27-.35,1.31,1.31,0,0,1,.35-.27,1.86,1.86,0,0,1,.41-.17,1.55,1.55,0,0,1,.92,0Zm-.92.56a1,1,0,0,0-.38.26,1.12,1.12,0,0,0-.26.38,1.18,1.18,0,0,0-.09.46,1.19,1.19,0,0,0,.09.47,1.25,1.25,0,0,0,.64.64,1.18,1.18,0,0,0,.46.09,1.19,1.19,0,0,0,.47-.09,1.12,1.12,0,0,0,.38-.26,1,1,0,0,0,.26-.38,1.19,1.19,0,0,0,.09-.47,1.18,1.18,0,0,0-.09-.46,1.25,1.25,0,0,0-.64-.64A1.19,1.19,0,0,0,53,69,1.18,1.18,0,0,0,52.52,69.1Z"/><path class="cls-6" d="M62.38,70.31a1.37,1.37,0,0,1-.36-.19,1,1,0,0,1-.24-.29.76.76,0,0,1-.08-.38.86.86,0,0,1,.09-.39.87.87,0,0,1,.25-.32,1.33,1.33,0,0,1,.35-.2,1.54,1.54,0,0,1,.42-.07,1.06,1.06,0,0,1,.31,0,1.31,1.31,0,0,1,.28.09,1,1,0,0,1,.25.16.91.91,0,0,1,.18.21.19.19,0,0,1,0,.08s0,0,0,.07l0,.07,0,.06-.07,0-.08,0h-.09a.18.18,0,0,1-.09,0l-.14-.11a.5.5,0,0,0-.14-.08A.43.43,0,0,0,63,69l-.19,0a.85.85,0,0,0-.23,0,.66.66,0,0,0-.19.09.86.86,0,0,0-.13.14.41.41,0,0,0,0,.19.29.29,0,0,0,.06.19.37.37,0,0,0,.17.13.85.85,0,0,0,.24.09l.3.07a2.53,2.53,0,0,1,.36.12,1.4,1.4,0,0,1,.32.18,1.18,1.18,0,0,1,.23.27.93.93,0,0,1,.08.39.91.91,0,0,1-.09.41,1,1,0,0,1-.25.33,1.11,1.11,0,0,1-.38.22,1.21,1.21,0,0,1-.46.08,1.27,1.27,0,0,1-.39-.05,1.22,1.22,0,0,1-.33-.14,1.09,1.09,0,0,1-.26-.21.83.83,0,0,1-.18-.25.35.35,0,0,1,0-.12.2.2,0,0,1,0-.11.22.22,0,0,1,0-.08l.07-.06a.26.26,0,0,1,.19,0,.38.38,0,0,1,.17.15,1,1,0,0,0,.3.27.93.93,0,0,0,.42.09l.23,0a.72.72,0,0,0,.2-.09.57.57,0,0,0,.15-.16.35.35,0,0,0,.05-.2.35.35,0,0,0-.05-.21.64.64,0,0,0-.15-.13l-.2-.08-.23-.06A2.13,2.13,0,0,1,62.38,70.31Z"/></g></g></svg>