<svg xmlns="http://www.w3.org/2000/svg" viewBox="0 0 1380.98 160.14"><defs><style>.cls-1{isolation:isolate;}.cls-2,.cls-3{fill:#093;}.cls-3{mix-blend-mode:multiply;opacity:0.2;}</style></defs><g class="cls-1"><g id="Destinos"><rect class="cls-2" width="1380.98" height="160.14" rx="4.23"/><path class="cls-3" d="M1248.34,35.87c-66.17-28.72-149.68-21.49-226.07,4.56s-82.35,48.31-197.42-4.56c-114.91-52.81-257.2-9-324.56,23.56s-106.36,35.82-246.84-24S3.74,107.65,3.74,107.65s-1.14.95-3.06,2.58V141C10.73,136,22.93,129.48,37.62,121.3,191.85,35.5,266.9,107.65,266.9,107.65c130.3,71.2,267.63,13.69,309.76-12.46,55-34.13,163.24-22.51,207-11.66S925,153.25,1008.89,107.65s171.56-40.31,235.77-7.51c41.82,21.35,100.71,8.15,136.32-3.87V19.44C1351.72,40.22,1303.13,59.64,1248.34,35.87Z"/><path class="cls-3" d="M1381,130.92c-29.46,20.47-77.65,39.13-131.92,15.65-66.36-28.71-150.11-21.49-226.72,4.57-9.05,3.08-17.11,6.1-24.49,9H1381Z"/><path class="cls-3" d="M855.91,160.09c-9.41-3.82-19.7-8.3-31.06-13.52-103.38-47.5-228.9-16.82-302.1,13.52Z"/><path class="cls-3" d="M287.23,160.09c-10.58-4.2-21.8-8.82-33.78-13.92-70.46-30-133.06-11.72-178,13.92Z"/></g></g></svg>