<svg xmlns="http://www.w3.org/2000/svg" viewBox="0 0 61.58 12.17"><defs><style>.cls-1{fill:#005654;}.cls-2{fill:#38b4b6;}.cls-3{fill:#fff;}</style></defs><g id="Botnvermas"><circle class="cls-1" cx="55.49" cy="6.09" r="5.96"/><path class="cls-2" d="M5.27,10.07h-2L.2,2.29H2.31L4.3,8l2-5.73h2Z"/><path class="cls-2" d="M11.49,4a2.86,2.86,0,0,1,2.34,1,3.65,3.65,0,0,1,.68,2.62H10.3a1.48,1.48,0,0,0,.51.83,1.4,1.4,0,0,0,.9.28,2,2,0,0,0,1.43-.61l1,1a3.33,3.33,0,0,1-2.61,1.06,3.23,3.23,0,0,1-2.32-.83,3,3,0,0,1-.86-2.22,3,3,0,0,1,.86-2.23A3.13,3.13,0,0,1,11.49,4ZM10.26,6.56h2.4a1.23,1.23,0,0,0-.31-.88,1.21,1.21,0,0,0-1.66,0A1.47,1.47,0,0,0,10.26,6.56Z"/><path class="cls-2" d="M17.26,4.08v1A2.15,2.15,0,0,1,19.2,4V5.73A1.91,1.91,0,0,0,17.86,6a1.31,1.31,0,0,0-.6,1v3.08H15.33v-6Z"/><path class="cls-2" d="M30.22,4a2,2,0,0,1,1.57.63,2.36,2.36,0,0,1,.59,1.67v3.78H30.46V6.83A1.21,1.21,0,0,0,30.19,6a1,1,0,0,0-.76-.31,1,1,0,0,0-.85.41,1.57,1.57,0,0,0-.32,1v3H26.34V6.83A1.21,1.21,0,0,0,26.07,6a1,1,0,0,0-.75-.31,1.1,1.1,0,0,0-.87.41,1.55,1.55,0,0,0-.32,1v3H22.21v-6h1.92v1a2.35,2.35,0,0,1,3.23-.72,2,2,0,0,1,.75,1A2.16,2.16,0,0,1,30.22,4Z"/><path class="cls-2" d="M36.21,4a2.91,2.91,0,0,1,1.92.57,2,2,0,0,1,.7,1.6v3.91H37V9.38a2.17,2.17,0,0,1-1.84.78,2.09,2.09,0,0,1-1.5-.52,1.79,1.79,0,0,1-.56-1.36A1.6,1.6,0,0,1,33.65,7a2.8,2.8,0,0,1,1.71-.48h1.58V6.38a.83.83,0,0,0-.3-.69,1.31,1.31,0,0,0-.87-.25,3.9,3.9,0,0,0-1.79.5l-.55-1.27A6.63,6.63,0,0,1,36.21,4ZM35.7,8.86a1.44,1.44,0,0,0,.8-.23A1,1,0,0,0,36.94,8V7.5H35.72c-.58,0-.86.22-.86.65a.63.63,0,0,0,.22.52A.9.9,0,0,0,35.7,8.86Zm.89-5.46H35.12L36.3,1.53,38,2.15Z"/><path class="cls-2" d="M42.12,4a4.75,4.75,0,0,1,2.46.68l-.65,1.24A4.16,4.16,0,0,0,42,5.31c-.39,0-.59.14-.59.42s.11.27.32.37a4.82,4.82,0,0,0,.79.27,6.76,6.76,0,0,1,.93.31,1.78,1.78,0,0,1,.78.58,1.49,1.49,0,0,1,.33,1,1.62,1.62,0,0,1-.71,1.4,3,3,0,0,1-1.82.51,4.32,4.32,0,0,1-2.69-.84L40,8.08a3.66,3.66,0,0,0,2.13.75c.43,0,.65-.14.65-.41s-.1-.29-.32-.39a3.58,3.58,0,0,0-.77-.28,6.52,6.52,0,0,1-.91-.31A1.87,1.87,0,0,1,40,6.87a1.52,1.52,0,0,1-.32-1,1.64,1.64,0,0,1,.68-1.4A2.91,2.91,0,0,1,42.12,4Z"/><path class="cls-3" d="M54.7,7.05H52.83V8.92H51.62V7.05H49.76V5.84h1.86V4h1.21V5.84H54.7Z"/></g></svg>